Coordinates
version=1
nRows=7
nColumns=40
inDegrees=yes

Units are S.I. units (second, meters, Newtons, ...)
Angles are in degrees.

endheader
time	pelvis_tilt	pelvis_list	pelvis_rotation	pelvis_tx	pelvis_ty	pelvis_tz	hip_flexion_r	hip_adduction_r	hip_rotation_r	knee_angle_r	knee_angle_r_beta	ankle_angle_r	subtalar_angle_r	mtp_angle_r	hip_flexion_l	hip_adduction_l	hip_rotation_l	knee_angle_l	knee_angle_l_beta	ankle_angle_l	subtalar_angle_l	mtp_angle_l	lumbar_extension	lumbar_bending	lumbar_rotation	arm_flex_r	arm_add_r	arm_rot_r	elbow_flex_r	pro_sup_r	wrist_flex_r	wrist_dev_r	arm_flex_l	arm_add_l	arm_rot_l	elbow_flex_l	pro_sup_l	wrist_flex_l	wrist_dev_l
      1.02792857	     -2.78794039	     -4.12176569	     -4.79576419	      1.04006142	      0.93209025	      0.45331437	     22.96602222	     -1.55006083	    -11.84094619	     11.51967527	     11.51967527	      0.45182011	     10.09497452	      4.72205597	      3.07457881	     -5.61865051	    -16.16816330	     13.03531849	     13.03531849	     11.49909741	    -11.53780337	    -11.70738636	    -10.78668312	      2.74721390	      1.05609986	    -12.63281204	    -14.84110957	    -14.75950234	     23.19465014	     47.56377235	      0.00000000	      0.00000000	     16.16536322	    -18.55351714	    -10.75513379	     73.55011146	     47.55123600	      0.00000000	      0.00000000
      1.04085714	     -2.87349672	     -4.18553783	     -4.96564848	      1.04153593	      0.93135230	      0.45547022	     22.80997035	     -1.08361190	    -12.28862187	     11.58073940	     11.58073940	      0.71693879	      9.89010836	      4.64839153	      2.64285218	     -5.78135915	    -16.23366019	     13.01975432	     13.01975432	     11.75961997	    -11.70077991	    -11.70996594	    -10.61576841	      2.82604213	      1.06358094	    -12.49481650	    -14.53805786	    -14.76167432	     23.27695615	     47.55800952	      0.00000000	      0.00000000	     16.35793101	    -18.60896380	    -10.82136515	     73.73900708	     47.56180422	      0.00000000	      0.00000000
      1.05378571	     -2.85548616	     -4.31868358	     -5.08234803	      1.04328188	      0.93070743	      0.45772068	     22.47949684	     -0.61108340	    -12.75921910	     11.91130571	     11.91130571	      1.00552429	      9.54595708	      4.45694670	      2.08936908	     -6.01692240	    -16.24965423	     13.01888787	     13.01888787	     12.05714352	    -11.84991106	    -11.64108724	    -10.54109473	      2.97431498	      1.11953906	    -12.29982789	    -14.22651646	    -14.76582183	     23.40104247	     47.55043839	      0.00000000	      0.00000000	     16.47111711	    -18.55402702	    -10.87144576	     74.00093022	     47.57227154	      0.00000000	      0.00000000
      1.06671429	     -2.76068506	     -4.35882304	     -5.19695030	      1.04529646	      0.93003070	      0.46008589	     22.10262511	     -0.23388504	    -12.75558215	     12.54431389	     12.54431389	      1.05583343	      8.51967173	      2.99991543	      1.53744715	     -6.17501879	    -16.31286519	     13.26837802	     13.26837802	     12.93029730	    -11.69519179	    -10.23172244	    -10.57032042	      2.99210483	      0.95515019	    -12.07288901	    -13.89883666	    -15.14235437	     24.19072837	     47.50798318	      0.00000000	      0.00000000	     15.95756253	    -18.53692294	    -11.45509675	     75.46336242	     47.65745746	      0.00000000	      0.00000000
      1.07964286	     -2.68174918	     -4.54685738	     -5.18601412	      1.04750219	      0.92930648	      0.46238005	     21.70652297	      0.16205946	    -13.09026427	     13.36399488	     13.36399488	      1.36860059	      7.93388882	      2.61117608	      0.93112554	     -6.48455711	    -16.22803216	     13.33506017	     13.33506017	     13.31483636	    -11.75972496	    -10.14839152	    -10.49266545	      3.24222524	      0.96345552	    -11.72892219	    -13.59400978	    -15.10012600	     24.32834277	     47.49633373	      0.00000000	      0.00000000	     15.95852697	    -18.36802488	    -11.41502945	     75.48342816	     47.65718965	      0.00000000	      0.00000000
      1.09257143	     -2.58378864	     -4.59955270	     -5.21159828	      1.04981600	      0.92837930	      0.46480873	     21.45119647	      0.41844276	    -12.86806128	     14.52541950	     14.52541950	      1.86287673	      6.89326999	      1.84304394	      0.39700770	     -6.67716628	    -16.16421601	     13.60094081	     13.60094081	     13.88356496	    -11.79025966	     -9.72001413	    -10.41370481	      3.32140360	      0.96655686	    -11.33699410	    -13.33347158	    -15.05132463	     24.59109677	     47.47512883	      0.00000000	      0.00000000	     15.91100081	    -18.26770513	    -11.42863874	     75.56481743	     47.66341290	      0.00000000	      0.00000000
      1.10550000	     -2.54406391	     -4.69270816	     -5.16671241	      1.05228552	      0.92744525	      0.46739991	     21.05639363	      0.80805204	    -12.29012902	     15.21923052	     15.21923052	      1.43077974	      5.14177544	     -0.85924986	      0.19895890	     -7.06827151	    -16.35721114	     14.55633829	     14.55633829	     15.92164851	    -10.68436866	     -6.39860501	    -10.25568835	      3.44312184	      0.82377249	    -11.01323411	    -12.99860743	    -14.59318420	     25.52885883	     47.33112495	      0.00000000	      0.00000000	     15.47064119	    -18.09716505	    -11.65590900	     75.97218673	     47.71656000	      0.00000000	      0.00000000
